# xmcd CD database file
#
# Track frame offsets:
#	150
#	10837
#	22932
#	37555
#	51167
#	65790
#	80422
#	93562
#	107355
#	120340
#	134140
#	148080
#	163370
#	176802
#	191112
#	204565
#	218175
#	231387
#
# Disc length: 3250 seconds
#
# Revision: 0
# Processed by: cddbd v1.5PL3 Copyright (c) Steve Scherf et al.
# Submitted via: CDex 1.51
#
DISCID=040cb012
DTITLE=Bix Beiderbecke - Bix Beiderbecke Anthologie
DYEAR=1995
DGENRE=Jazz
TTITLE0=Oh Baby (Donaldson, De Sylva, 1924)
TTITLE1=Tiger Rag (La Rocca, De Costa, 1924)
TTITLE2=Clarinet Marmelade (Shields, Ragas, 1927)
TTITLE3=Singin'The Blues (Conrad, Robinson, 1927)
TTITLE4=Riverboat Shuffle (Carmichael, Voynow, Mills, 1927)
TTITLE5=I'm Coming Virginia (Heywood, Cook, 1927)
TTITLE6=Way Down Yonder in New Orleans (Layton, Creamer, 1927)
TTITLE7=Clementine (Warren, Creamer, 1927)
TTITLE8=At the Jazz Band Ball (La Rocca, Shields, 1927)
TTITLE9=Royal Garden Blues (Williams, Williams, 1927)
TTITLE10=Jazz Me Blues (Delaney, 1927)
TTITLE11=Goose Pimples (Henderson, Trent, 1927)
TTITLE12=Sorry (Quicksell, Klages, 1927)
TTITLE13=Since My Best Gal Turned Me Down (quicksell, Ludwig, 1927)
TTITLE14=Lonely Melody (Dyson, Coslow, Meroff, 1928)
TTITLE15=Dardanella (Bernard, Black, Fisher, 1928)
TTITLE16=Somebody Stole My Gal (Wood, 1928)
TTITLE17=In A Mist (Beiderbecke, 1927)
EXTD=YEAR: 1995
EXTT0=
EXTT1=
EXTT2=
EXTT3=
EXTT4=
EXTT5=
EXTT6=
EXTT7=
EXTT8=
EXTT9=
EXTT10=
EXTT11=
EXTT12=
EXTT13=
EXTT14=
EXTT15=
EXTT16=
EXTT17=
PLAYORDER=
